<?xml version="1.0" encoding="UTF-8"?>
<!DOCTYPE svg PUBLIC "-//W3C//DTD SVG 1.1//EN" "http://www.w3.org/Graphics/SVG/1.1/DTD/svg11.dtd">
<svg xmlns="http://www.w3.org/2000/svg" version="1.1" width="96px" height="96px" style="shape-rendering:geometricPrecision; text-rendering:geometricPrecision; image-rendering:optimizeQuality; fill-rule:evenodd; clip-rule:evenodd" xmlns:xlink="http://www.w3.org/1999/xlink">
<g><path style="opacity:0.988" fill="#8ee4f0" d="M 37.5,-0.5 C 44.1667,-0.5 50.8333,-0.5 57.5,-0.5C 77.193,5.193 89.8597,17.8597 95.5,37.5C 95.5,44.1667 95.5,50.8333 95.5,57.5C 94.8333,58.8333 94.1667,60.1667 93.5,61.5C 88.5,57.1667 83.8333,52.5 79.5,47.5C 79.6396,41.4468 76.9729,37.1135 71.5,34.5C 70.8333,33.8333 70.1667,33.1667 69.5,32.5C 71.7358,22.3048 68.0692,14.9715 58.5,10.5C 56.7103,9.00268 54.5437,8.33601 52,8.5C 50.2933,8.50848 48.7933,8.84182 47.5,9.5C 45.7839,9.62867 44.1172,9.962 42.5,10.5C 39.1667,7.83333 36.1667,4.83333 33.5,1.5C 34.8333,0.833333 36.1667,0.166667 37.5,-0.5 Z"/></g>
<g><path style="opacity:0.978" fill="#a0dff5" d="M 33.5,1.5 C 36.1667,4.83333 39.1667,7.83333 42.5,10.5C 41.8333,11.1667 41.1667,11.8333 40.5,12.5C 39.448,12.3505 38.448,12.5172 37.5,13C 33.8752,17.3857 29.2085,19.7191 23.5,20C 19.997,24.3347 16.3303,28.5014 12.5,32.5C 8.16667,32.1667 6.16667,34.1667 6.5,38.5C 2.85389,44.4325 0.853885,50.7658 0.5,57.5C 0.166667,57.5 -0.166667,57.5 -0.5,57.5C -0.5,50.8333 -0.5,44.1667 -0.5,37.5C 4.32592,19.3411 15.6593,7.34108 33.5,1.5 Z"/></g>
<g><path style="opacity:1" fill="#ea79cc" d="M 47.5,9.5 C 48.7933,8.84182 50.2933,8.50848 52,8.5C 54.5437,8.33601 56.7103,9.00268 58.5,10.5C 60.1561,16.3646 60.8227,22.3646 60.5,28.5C 59.2022,27.8843 58.2022,27.8843 57.5,28.5C 56.5326,27.1938 55.1993,26.5271 53.5,26.5C 52.6267,24.1137 51.1267,22.1137 49,20.5C 48.5172,19.552 48.3505,18.552 48.5,17.5C 45.8915,17.4003 43.5582,18.0669 41.5,19.5C 43.5566,15.933 46.2232,12.7663 49.5,10C 48.9056,9.53566 48.2389,9.36899 47.5,9.5 Z"/></g>
<g><path style="opacity:1" fill="#df3098" d="M 47.5,9.5 C 48.2389,9.36899 48.9056,9.53566 49.5,10C 46.2232,12.7663 43.5566,15.933 41.5,19.5C 40.391,19.4431 39.391,19.1098 38.5,18.5C 39.7298,16.7028 40.3964,14.7028 40.5,12.5C 41.1667,11.8333 41.8333,11.1667 42.5,10.5C 44.1172,9.962 45.7839,9.62867 47.5,9.5 Z"/></g>
<g><path style="opacity:1" fill="#98e885" d="M 58.5,10.5 C 68.0692,14.9715 71.7358,22.3048 69.5,32.5C 68.7245,25.3272 65.7245,23.9938 60.5,28.5C 60.8227,22.3646 60.1561,16.3646 58.5,10.5 Z"/></g>
<g><path style="opacity:1" fill="#edafaa" d="M 40.5,12.5 C 40.3964,14.7028 39.7298,16.7028 38.5,18.5C 37.9569,18.56 37.6236,18.8933 37.5,19.5C 38.6302,20.6223 39.2969,21.9557 39.5,23.5C 39.5922,26.4 38.2589,28.0667 35.5,28.5C 34.1751,29.9526 33.3418,29.6192 33,27.5C 32.5756,29.6145 31.4089,30.4479 29.5,30C 28.5715,27.5002 28.5715,25.3335 29.5,23.5C 27.244,24.4209 26.244,26.0876 26.5,28.5C 22.1074,28.4568 21.7741,28.9568 25.5,30C 23.9186,31.828 22.5853,33.828 21.5,36C 19.1667,36.6667 16.8333,36.6667 14.5,36C 13.244,35.5831 12.5774,34.7498 12.5,33.5C 12.5,33.1667 12.5,32.8333 12.5,32.5C 16.3303,28.5014 19.997,24.3347 23.5,20C 29.2085,19.7191 33.8752,17.3857 37.5,13C 38.448,12.5172 39.448,12.3505 40.5,12.5 Z"/></g>
<g><path style="opacity:1" fill="#703185" d="M 39.5,23.5 C 41.2818,25.0227 42.6152,27.0227 43.5,29.5C 43.3201,30.5539 42.9867,31.5539 42.5,32.5C 39.3736,32.9839 36.7069,34.3173 34.5,36.5C 33.6143,35.675 33.281,34.675 33.5,33.5C 34.5,33.5 35.5,33.5 36.5,33.5C 36.3713,31.7839 36.038,30.1172 35.5,28.5C 38.2589,28.0667 39.5922,26.4 39.5,23.5 Z"/></g>
<g><path style="opacity:1" fill="#e3dddf" d="M 69.5,32.5 C 68.8485,33.0906 68.1818,33.7573 67.5,34.5C 66.7568,33.0921 65.9234,31.7588 65,30.5C 64.2411,32.0629 63.0744,33.0629 61.5,33.5C 61.634,31.7085 61.3007,30.0418 60.5,28.5C 65.7245,23.9938 68.7245,25.3272 69.5,32.5 Z"/></g>
<g><path style="opacity:1" fill="#e89595" d="M 35.5,28.5 C 36.038,30.1172 36.3713,31.7839 36.5,33.5C 35.5,33.5 34.5,33.5 33.5,33.5C 31.6203,33.2291 30.287,33.8958 29.5,35.5C 27.5853,35.2155 25.9187,35.5489 24.5,36.5C 20.4105,40.018 15.9105,40.3514 11,37.5C 10.6522,35.8602 11.1522,34.5268 12.5,33.5C 12.5774,34.7498 13.244,35.5831 14.5,36C 16.8333,36.6667 19.1667,36.6667 21.5,36C 22.5853,33.828 23.9186,31.828 25.5,30C 21.7741,28.9568 22.1074,28.4568 26.5,28.5C 26.244,26.0876 27.244,24.4209 29.5,23.5C 28.5715,25.3335 28.5715,27.5002 29.5,30C 31.4089,30.4479 32.5756,29.6145 33,27.5C 33.3418,29.6192 34.1751,29.9526 35.5,28.5 Z"/></g>
<g><path style="opacity:1" fill="#dcc6cf" d="M 53.5,26.5 C 55.1993,26.5271 56.5326,27.1938 57.5,28.5C 57.5,28.8333 57.5,29.1667 57.5,29.5C 57.5,30.5 57.5,31.5 57.5,32.5C 55.1183,31.4537 52.7849,31.4537 50.5,32.5C 50.0246,29.6874 51.0246,27.6874 53.5,26.5 Z"/></g>
<g><path style="opacity:1" fill="#5068ec" d="M 53.5,26.5 C 51.0246,27.6874 50.0246,29.6874 50.5,32.5C 50.3253,34.6208 50.6586,36.6208 51.5,38.5C 50.5,38.5 49.5,38.5 48.5,38.5C 47.075,34.1843 44.575,33.5177 41,36.5C 40.51,37.7932 40.3433,39.1266 40.5,40.5C 37.5,40.5 34.5,40.5 31.5,40.5C 30.4489,39.7777 29.7822,38.7777 29.5,37.5C 29.5,36.8333 29.5,36.1667 29.5,35.5C 30.287,33.8958 31.6203,33.2291 33.5,33.5C 33.281,34.675 33.6143,35.675 34.5,36.5C 36.7069,34.3173 39.3736,32.9839 42.5,32.5C 42.9867,31.5539 43.3201,30.5539 43.5,29.5C 42.6152,27.0227 41.2818,25.0227 39.5,23.5C 39.2969,21.9557 38.6302,20.6223 37.5,19.5C 37.6236,18.8933 37.9569,18.56 38.5,18.5C 39.391,19.1098 40.391,19.4431 41.5,19.5C 43.5582,18.0669 45.8915,17.4003 48.5,17.5C 48.3505,18.552 48.5172,19.552 49,20.5C 51.1267,22.1137 52.6267,24.1137 53.5,26.5 Z"/></g>
<g><path style="opacity:1" fill="#82195a" d="M 57.5,29.5 C 58.5511,32.3442 58.5511,35.3442 57.5,38.5C 55.5,38.5 53.5,38.5 51.5,38.5C 50.6586,36.6208 50.3253,34.6208 50.5,32.5C 52.7849,31.4537 55.1183,31.4537 57.5,32.5C 57.5,31.5 57.5,30.5 57.5,29.5 Z"/></g>
<g><path style="opacity:1" fill="#7192ee" d="M 48.5,38.5 C 46.5,39.1667 44.5,39.8333 42.5,40.5C 41.8333,40.5 41.1667,40.5 40.5,40.5C 40.3433,39.1266 40.51,37.7932 41,36.5C 44.575,33.5177 47.075,34.1843 48.5,38.5 Z"/></g>
<g><path style="opacity:1" fill="#ec3aad" d="M 71.5,34.5 C 76.9729,37.1135 79.6396,41.4468 79.5,47.5C 76.728,48.7671 74.0613,48.7671 71.5,47.5C 72.6947,42.7894 72.6947,38.4561 71.5,34.5 Z"/></g>
<g><path style="opacity:1" fill="#6550b5" d="M 60.5,28.5 C 61.3007,30.0418 61.634,31.7085 61.5,33.5C 61.5,35.1667 61.5,36.8333 61.5,38.5C 60.1667,38.5 58.8333,38.5 57.5,38.5C 58.5511,35.3442 58.5511,32.3442 57.5,29.5C 57.5,29.1667 57.5,28.8333 57.5,28.5C 58.2022,27.8843 59.2022,27.8843 60.5,28.5 Z"/></g>
<g><path style="opacity:0.995" fill="#f97ed5" d="M 12.5,32.5 C 12.5,32.8333 12.5,33.1667 12.5,33.5C 11.1522,34.5268 10.6522,35.8602 11,37.5C 15.9105,40.3514 20.4105,40.018 24.5,36.5C 27.4687,39.3445 27.1354,41.6778 23.5,43.5C 22.5258,45.7427 22.1924,48.076 22.5,50.5C 21.5065,57.0724 24.5065,61.239 31.5,63C 35.5,63.6667 39.5,63.6667 43.5,63C 40.5958,62.8672 38.2624,61.7005 36.5,59.5C 35.4265,58.7494 35.2599,57.7494 36,56.5C 37.6667,55.2668 39.1667,53.9335 40.5,52.5C 42.2972,53.7298 44.2972,54.3964 46.5,54.5C 44.8998,55.6444 43.2331,56.8111 41.5,58C 44.6883,59.3158 48.0217,59.8158 51.5,59.5C 51.2053,61.7354 51.5386,63.7354 52.5,65.5C 57.1835,74.5683 59.5168,84.2349 59.5,94.5C 58.5084,94.3284 57.8417,94.6618 57.5,95.5C 50.8333,95.5 44.1667,95.5 37.5,95.5C 35.1124,94.6515 32.7791,93.6515 30.5,92.5C 30.5751,89.7938 30.9084,87.1272 31.5,84.5C 16.1079,80.6106 7.7746,70.7773 6.5,55C 6.67053,49.3168 7.67053,43.8168 9.5,38.5C 8.5,38.5 7.5,38.5 6.5,38.5C 6.16667,34.1667 8.16667,32.1667 12.5,32.5 Z"/></g>
<g><path style="opacity:1" fill="#eee3c9" d="M 70.5,39.5 C 61.231,39.3176 51.8977,39.651 42.5,40.5C 44.5,39.8333 46.5,39.1667 48.5,38.5C 49.5,38.5 50.5,38.5 51.5,38.5C 53.5,38.5 55.5,38.5 57.5,38.5C 58.8333,38.5 60.1667,38.5 61.5,38.5C 63.1986,38.6204 64.8653,38.9537 66.5,39.5C 68.151,37.2649 69.4843,37.2649 70.5,39.5 Z"/></g>
<g><path style="opacity:1" fill="#b21e72" d="M 69.5,32.5 C 70.1667,33.1667 70.8333,33.8333 71.5,34.5C 72.6947,38.4561 72.6947,42.7894 71.5,47.5C 70.609,46.8902 69.609,46.5569 68.5,46.5C 68.5,45.8333 68.5,45.1667 68.5,44.5C 69.9418,43.1805 70.6085,41.5138 70.5,39.5C 69.4843,37.2649 68.151,37.2649 66.5,39.5C 64.8653,38.9537 63.1986,38.6204 61.5,38.5C 61.5,36.8333 61.5,35.1667 61.5,33.5C 63.0744,33.0629 64.2411,32.0629 65,30.5C 65.9234,31.7588 66.7568,33.0921 67.5,34.5C 68.1818,33.7573 68.8485,33.0906 69.5,32.5 Z"/></g>
<g><path style="opacity:0.99" fill="#f83bb5" d="M 6.5,38.5 C 7.5,38.5 8.5,38.5 9.5,38.5C 7.67053,43.8168 6.67053,49.3168 6.5,55C 7.7746,70.7773 16.1079,80.6106 31.5,84.5C 30.9084,87.1272 30.5751,89.7938 30.5,92.5C 14.0105,86.3473 4.01054,74.6807 0.5,57.5C 0.853885,50.7658 2.85389,44.4325 6.5,38.5 Z"/></g>
<g><path style="opacity:1" fill="#f9de75" d="M 70.5,39.5 C 70.6085,41.5138 69.9418,43.1805 68.5,44.5C 67.1266,44.3433 65.7932,44.51 64.5,45C 66.3398,47.8263 67.0065,50.9929 66.5,54.5C 66.0248,56.7837 65.0248,58.7837 63.5,60.5C 61.9095,62.6326 59.9095,64.2993 57.5,65.5C 56.6862,63.369 56.1862,61.0356 56,58.5C 54.662,55.682 53.162,53.0153 51.5,50.5C 51.8757,48.6171 52.8757,47.1171 54.5,46C 50.2407,46.8084 45.9074,47.1417 41.5,47C 42.1667,46.3333 42.8333,45.6667 43.5,45C 40.1667,44.6667 36.8333,44.3333 33.5,44C 32.5,43 31.5,42 30.5,41C 30.7284,40.6012 31.0618,40.4346 31.5,40.5C 34.5,40.5 37.5,40.5 40.5,40.5C 41.1667,40.5 41.8333,40.5 42.5,40.5C 51.8977,39.651 61.231,39.3176 70.5,39.5 Z"/></g>
<g><path style="opacity:1" fill="#a8cee8" d="M 29.5,35.5 C 29.5,36.1667 29.5,36.8333 29.5,37.5C 28.8861,42.248 28.5528,47.0813 28.5,52C 31.26,52.6741 33.9267,53.5075 36.5,54.5C 36.5,53.1667 36.5,51.8333 36.5,50.5C 37.6049,51.6005 38.9382,52.2671 40.5,52.5C 39.1667,53.9335 37.6667,55.2668 36,56.5C 35.2599,57.7494 35.4265,58.7494 36.5,59.5C 29.0583,61.1005 24.3916,58.1005 22.5,50.5C 22.1924,48.076 22.5258,45.7427 23.5,43.5C 27.1354,41.6778 27.4687,39.3445 24.5,36.5C 25.9187,35.5489 27.5853,35.2155 29.5,35.5 Z"/></g>
<g><path style="opacity:1" fill="#df9e65" d="M 68.5,44.5 C 68.5,45.1667 68.5,45.8333 68.5,46.5C 68.7062,49.4951 68.0395,52.1617 66.5,54.5C 67.0065,50.9929 66.3398,47.8263 64.5,45C 65.7932,44.51 67.1266,44.3433 68.5,44.5 Z"/></g>
<g><path style="opacity:1" fill="#df9f67" d="M 29.5,37.5 C 29.7822,38.7777 30.4489,39.7777 31.5,40.5C 31.0618,40.4346 30.7284,40.6012 30.5,41C 31.5,42 32.5,43 33.5,44C 36.8333,44.3333 40.1667,44.6667 43.5,45C 42.8333,45.6667 42.1667,46.3333 41.5,47C 45.9074,47.1417 50.2407,46.8084 54.5,46C 52.8757,47.1171 51.8757,48.6171 51.5,50.5C 53.162,53.0153 54.662,55.682 56,58.5C 56.1862,61.0356 56.6862,63.369 57.5,65.5C 57.44,66.0431 57.1067,66.3764 56.5,66.5C 55.8319,64.0312 55.1653,61.6979 54.5,59.5C 53.2878,56.8932 51.2878,55.2265 48.5,54.5C 46.615,52.9468 45.615,50.9468 45.5,48.5C 41.2795,49.1924 37.6128,48.1924 34.5,45.5C 34.1667,45.8333 33.8333,46.1667 33.5,46.5C 34.5244,47.8518 35.5244,49.1851 36.5,50.5C 36.5,51.8333 36.5,53.1667 36.5,54.5C 33.9267,53.5075 31.26,52.6741 28.5,52C 28.5528,47.0813 28.8861,42.248 29.5,37.5 Z"/></g>
<g><path style="opacity:0.992" fill="#9adff2" d="M 68.5,46.5 C 69.609,46.5569 70.609,46.8902 71.5,47.5C 74.0613,48.7671 76.728,48.7671 79.5,47.5C 83.8333,52.5 88.5,57.1667 93.5,61.5C 91.8737,67.4193 89.2071,72.7526 85.5,77.5C 84.9278,75.7446 84.0945,74.0779 83,72.5C 78.689,69.3566 74.5224,66.0233 70.5,62.5C 68.3821,61.0541 66.0488,60.3874 63.5,60.5C 65.0248,58.7837 66.0248,56.7837 66.5,54.5C 68.0395,52.1617 68.7062,49.4951 68.5,46.5 Z"/></g>
<g><path style="opacity:1" fill="#4d48cf" d="M 48.5,54.5 C 47.8333,54.5 47.1667,54.5 46.5,54.5C 44.2972,54.3964 42.2972,53.7298 40.5,52.5C 38.9382,52.2671 37.6049,51.6005 36.5,50.5C 35.5244,49.1851 34.5244,47.8518 33.5,46.5C 33.8333,46.1667 34.1667,45.8333 34.5,45.5C 37.6128,48.1924 41.2795,49.1924 45.5,48.5C 45.615,50.9468 46.615,52.9468 48.5,54.5 Z"/></g>
<g><path style="opacity:1" fill="#9f53a9" d="M 46.5,54.5 C 47.1667,54.5 47.8333,54.5 48.5,54.5C 51.2878,55.2265 53.2878,56.8932 54.5,59.5C 52.6921,60.9179 52.0254,62.9179 52.5,65.5C 51.5386,63.7354 51.2053,61.7354 51.5,59.5C 48.0217,59.8158 44.6883,59.3158 41.5,58C 43.2331,56.8111 44.8998,55.6444 46.5,54.5 Z"/></g>
<g><path style="opacity:0.982" fill="#f1eff2" d="M 54.5,59.5 C 55.1653,61.6979 55.8319,64.0312 56.5,66.5C 57.1067,66.3764 57.44,66.0431 57.5,65.5C 59.9095,64.2993 61.9095,62.6326 63.5,60.5C 66.0488,60.3874 68.3821,61.0541 70.5,62.5C 74.5224,66.0233 78.689,69.3566 83,72.5C 84.0945,74.0779 84.9278,75.7446 85.5,77.5C 84.8333,78.8333 83.8333,79.8333 82.5,80.5C 80.8442,77.8614 79.1776,75.1947 77.5,72.5C 76.9984,71.479 76.3317,71.3123 75.5,72C 78.1087,75.0508 79.7754,78.5508 80.5,82.5C 74.5842,88.2943 67.5842,92.2943 59.5,94.5C 59.5168,84.2349 57.1835,74.5683 52.5,65.5C 52.0254,62.9179 52.6921,60.9179 54.5,59.5 Z"/></g>
<g><path style="opacity:1" fill="#ec3eaf" d="M 22.5,50.5 C 24.3916,58.1005 29.0583,61.1005 36.5,59.5C 38.2624,61.7005 40.5958,62.8672 43.5,63C 39.5,63.6667 35.5,63.6667 31.5,63C 24.5065,61.239 21.5065,57.0724 22.5,50.5 Z"/></g>
<g><path style="opacity:1" fill="#bcec7c" d="M 40.5,69.5 C 49.5298,69.3583 53.3631,73.6916 52,82.5C 49.6471,87.4264 45.8138,89.2598 40.5,88C 34.9752,85.0812 33.1419,80.5812 35,74.5C 36.7297,72.5981 38.563,70.9314 40.5,69.5 Z"/></g>
<g><path style="opacity:1" fill="#d4cac6" d="M 39.5,72.5 C 50.2378,71.0297 53.2378,74.863 48.5,84C 45.9865,85.2525 43.3198,85.7525 40.5,85.5C 39.6365,82.6257 38.3032,79.9591 36.5,77.5C 37.0924,75.5775 38.0924,73.9108 39.5,72.5 Z"/></g>
<g><path style="opacity:0.72" fill="#7eebed" d="M 82.5,80.5 C 82.1667,81.5 81.5,82.1667 80.5,82.5C 79.7754,78.5508 78.1087,75.0508 75.5,72C 76.3317,71.3123 76.9984,71.479 77.5,72.5C 79.1776,75.1947 80.8442,77.8614 82.5,80.5 Z"/></g>
</svg>
